<?xml version="1.0" encoding="utf-8"?>
<!-- Generator: Adobe Illustrator 19.0.0, SVG Export Plug-In . SVG Version: 6.00 Build 0)  -->
<svg version="1.0" id="Calque_1" xmlns:x="&ns_extend;" xmlns:i="&ns_ai;" xmlns:graph="&ns_graphs;"
	 xmlns="http://www.w3.org/2000/svg" xmlns:xlink="http://www.w3.org/1999/xlink" x="0px" y="0px" viewBox="312 -312.6 907.1 907.1"
	 style="enable-background:new 312 -312.6 907.1 907.1;" xml:space="preserve">
<style type="text/css">
	.st0{fill:none;stroke:#000000;stroke-miterlimit:10;}
</style>
<metadata>
	<sfw  xmlns="&ns_sfw;">
		<slices></slices>
		<sliceSourceBounds  width="452.7" height="778.4" bottomLeftOrigin="true" y="64.3" x="227.2"></sliceSourceBounds>
	</sfw>
</metadata>
<g>
	<path class="st0" d="M539.7-247.8h94.9c146.4,0,284.6,38.1,284.6,213.4c0,56.7-30.9,122.7-83.5,147.4v2.1
		c91.8,16.5,155.7,106.2,155.7,196.9c0,155.7-133,217.6-270.2,217.6H539.7V-247.8z M636.6,96.6h24.7c91.8,0,167-18.6,167-129.9
		c0-109.3-74.2-127.9-165-127.9h-26.8L636.6,96.6L636.6,96.6z M636.6,443h74.2c89.7,0,183.5-26.8,183.5-137.1
		c0-109.3-111.4-132-198-132h-59.8L636.6,443L636.6,443z"/>
</g>
</svg>
