<?xml version="1.0" encoding="utf-8"?>
<!DOCTYPE svg PUBLIC "-//W3C//DTD SVG 1.1//EN" "http://www.w3.org/Graphics/SVG/1.1/DTD/svg11.dtd">
<svg version="1.1" xmlns="http://www.w3.org/2000/svg" xmlns:xlink="http://www.w3.org/1999/xlink" x="0px" y="0px" xml:space="preserve">
<g>
	<path d="M168.187,384.229c-4.943-4.506-10.945-8.041-17.913-10.617c6.222-2.252,11.583-5.678,16.299-10.402 c8.79-8.682,13.186-19.729,13.186-33.022c0-13.726-4.07-24.984-12.437-33.776c-9.758-10.615-24.015-16.838-42.565-18.557 c-6.65-0.639-16.946-0.961-31.101-0.961H74.354v39.355c7.396-0.109,12.977-0.109,16.729-0.109c10.508,0,17.805,0.323,22.095,0.969 c13.398,1.713,20.045,8.469,20.045,20.264c0,4.184-1.181,8.045-3.429,11.366c-2.25,3.325-5.254,5.679-9.006,6.861 c-3.54,1.179-9.222,1.825-17.159,1.825H74.461v37.427h21.446c6.868,0,11.582,0.101,14.262,0.317 c9.546,0.645,16.408,3.107,20.698,7.505c4.401,4.505,6.543,10.083,6.543,16.729c0,5.249-1.286,9.974-4.077,14.262 c-2.572,4.078-6.008,6.969-10.511,8.791c-5.359,2.254-13.833,3.324-25.519,3.324H74.461v38.924l24.125-0.108 c19.303,0,33.78-1.282,43.539-4.071c12.654-3.65,22.839-10.299,30.559-19.947c8.471-10.51,12.654-22.946,12.654-37.1 C185.339,407.604,179.658,394.521,168.187,384.229z"/>
	<path d="M15.166,276.892h47.288v207.81H15.166c0,0,0.025-80.944,0-107.934C15.148,351.794,15.166,276.892,15.166,276.892z"/>
	<path d="M337.176,397.634c12.438-1.286,23.055-4.829,31.845-10.616c16.299-10.619,24.45-26.916,24.45-48.682
		c0-17.479-5.04-31.85-15.224-42.896c-9.227-9.969-22.632-15.76-40.533-17.476c-7.081-0.749-18.559-1.072-34.528-1.072h-18.555
		v39.245h21.335c12.549,0,21.661,1.18,27.241,3.647c9,3.858,13.508,11.15,13.508,21.876c0,11.257-5.145,19.086-15.547,23.482
		c-5.576,2.355-15.121,3.535-28.736,3.535h-17.805v29.166l60.697,86.857h61.334L337.176,397.634z"/>
	<path d="M225.332,276.892h47.291v207.81h-47.291c0,0,0.024-80.944,0-107.934C225.314,351.794,225.332,276.892,225.332,276.892z"/>
	<path d="M168.178,146.177c-4.931-4.5-10.933-8.043-17.901-10.612c6.222-2.253,11.582-5.682,16.293-10.401
		c8.792-8.69,13.193-19.73,13.193-33.029c0-13.726-4.077-24.985-12.44-33.778c-9.757-10.613-24.015-16.836-42.569-18.547
		c-6.646-0.646-16.946-0.968-31.101-0.968H74.353v39.356c7.402-0.11,12.982-0.11,16.732-0.11c10.51,0,17.803,0.322,22.093,0.968
		c13.398,1.711,20.047,8.47,20.047,20.265c0,4.183-1.179,8.043-3.431,11.363c-2.247,3.325-5.251,5.688-9.002,6.863
		c-3.545,1.18-9.225,1.827-17.161,1.827H74.468v37.424h21.446c6.861,0,11.58,0.104,14.26,0.316c9.546,0.647,16.406,3.114,20.7,7.509
		c4.399,4.505,6.544,10.077,6.544,16.728c0,5.255-1.286,9.974-4.078,14.261c-2.569,4.073-6.007,6.972-10.51,8.793
		c-5.361,2.252-13.825,3.324-25.519,3.324H74.468v38.923l24.125-0.105c19.303,0,33.78-1.29,43.536-4.08
		c12.656-3.641,22.846-10.291,30.559-19.941c8.474-10.512,12.656-22.946,12.656-37.104
		C185.337,169.557,179.658,156.475,168.178,146.177z"/>
	<path d="M363.124,48.603c-15.338-9.761-33.666-14.694-55.222-14.907v41.712c31.201,1.931,46.856,24.339,46.856,66.909
		c0,25.095-5.365,43.106-16.086,54.043c-8.251,8.477-18.547,12.872-30.771,13.409v42.029c10.51-0.104,19.511-1.071,27.231-2.892
		c23.701-5.36,42.035-19.194,55.117-41.498c10.937-18.658,16.404-40.21,16.404-64.877c0.002-21.55-4.182-40.958-12.65-58.33
		C386.612,68.758,376.313,56.963,363.124,48.603z"/>
	<path d="M248.822,143.822c0-43.105,15.759-65.838,47.071-68.304V33.804c-9.009,0-17.271,0.854-24.774,2.466
		c-23.163,4.934-41.066,16.618-53.614,34.85c-13.723,19.943-20.587,43.959-20.587,71.952c0,18.548,3.215,35.599,9.757,51.145
		c7.074,16.94,17.159,30.349,30.239,40.317c8.147,6.115,16.73,10.619,25.734,13.19c9.006,2.576,20.054,3.97,33.134,4.073
		l0.111-41.924c-11.69-0.962-21.128-4.396-28.205-10.188C255.146,189.073,248.822,170.522,248.822,143.822z"/>
	<path d="M15.166,38.841h47.288v207.813H15.166c0,0,0.025-80.945,0-107.935C15.148,113.741,15.166,38.841,15.166,38.841z"/>
</g>
</svg>
