<?xml version="1.0" encoding="utf-8"?>
<!-- Generator: Adobe Illustrator 19.0.0, SVG Export Plug-In . SVG Version: 6.00 Build 0)  -->
<svg version="1.0" id="Calque_1" xmlns:x="&ns_extend;" xmlns:i="&ns_ai;" xmlns:graph="&ns_graphs;"
	 xmlns="http://www.w3.org/2000/svg" xmlns:xlink="http://www.w3.org/1999/xlink" x="0px" y="0px" viewBox="264 -0.7 811.1 284.2"
	 style="enable-background:new 264 -0.7 811.1 284.2;" xml:space="preserve">
<style type="text/css">
	.st0{fill:none;stroke:#000000;}
</style>
<metadata>
	<sfw  xmlns="&ns_sfw;">
		<slices></slices>
		<sliceSourceBounds  height="204.4" width="731.8" bottomLeftOrigin="true" x="399.9" y="41.1"></sliceSourceBounds>
	</sfw>
</metadata>
<g>
	<path class="st0" d="M708.5,237.1h-44.1V43.3h44.1V237.1z M719.7,237.1v-36.3H741c10.9,0,18.8-1,23.8-3.1c4.2-1.7,7.4-4.4,9.8-8.2
		c2.6-4,3.8-8.4,3.8-13.3c0-6.2-2-11.4-6.1-15.6c-4-4.1-10.4-6.4-19.3-7c-2.5-0.2-6.9-0.3-13.3-0.3h-20v-34.9h27.2
		c7.4,0,12.7-0.6,16-1.7c3.5-1.1,6.3-3.3,8.4-6.4s3.2-6.7,3.2-10.6c0-11-6.2-17.3-18.7-18.9c-4-0.6-10.8-0.9-20.6-0.9
		c-3.5,0-8.7,0-15.6,0.1V43.3h18c13.2,0,22.8,0.3,29,0.9c17.3,1.6,30.6,7.4,39.7,17.3c7.8,8.2,11.6,18.7,11.6,31.5
		c0,12.4-4.1,22.7-12.3,30.8c-4.4,4.4-9.4,7.6-15.2,9.7c6.5,2.4,12.1,5.7,16.7,9.9c10.7,9.6,16,21.8,16,36.6
		c0,13.2-3.9,24.8-11.8,34.6c-7.2,9-16.7,15.2-28.5,18.6c-9.1,2.6-22.6,3.8-40.6,3.8L719.7,237.1L719.7,237.1z"/>
	<path class="st0" d="M926.1,241.9c-12.2-0.1-22.5-1.4-30.9-3.8s-16.4-6.6-24-12.3c-12.2-9.3-21.6-21.8-28.2-37.6
		c-6.1-14.5-9.1-30.4-9.1-47.7c0-26.1,6.4-48.5,19.2-67.1c11.7-17,28.4-27.9,50-32.5c7-1.5,14.7-2.3,23.1-2.3v38.9
		c-29.2,2.3-43.9,23.5-43.9,63.7c0,24.9,5.9,42.2,17.6,52.1c6.6,5.4,15.4,8.6,26.3,9.5L926.1,241.9L926.1,241.9z M937.4,241.9v-39.2
		c11.4-0.5,21-4.6,28.7-12.5c10-10.2,15-27,15-50.4c0-39.7-14.6-60.6-43.7-62.4V38.5c20.1,0.2,37.2,4.8,51.5,13.9
		c12.3,7.8,21.9,18.8,28.8,33.2c7.9,16.2,11.8,34.3,11.8,54.4c0,23-5.1,43.1-15.3,60.5c-12.2,20.8-29.3,33.7-51.4,38.7
		C955.6,240.9,947.2,241.8,937.4,241.9z"/>
	<path class="st0" d="M1092.1,237.1H1048V43.3h44.1V237.1z M1103.3,237.1v-36.3h21.3c10.9,0,18.8-1,23.8-3.1
		c4.2-1.7,7.4-4.4,9.8-8.2c2.6-4,3.8-8.4,3.8-13.3c0-6.2-2-11.4-6.1-15.6c-4-4.1-10.4-6.4-19.3-7c-2.5-0.2-6.9-0.3-13.3-0.3h-20
		v-34.9h27.2c7.4,0,12.7-0.6,16-1.7c3.5-1.1,6.3-3.3,8.4-6.4s3.2-6.7,3.2-10.6c0-11-6.2-17.3-18.7-18.9c-4-0.6-10.8-0.9-20.6-0.9
		c-3.5,0-8.7,0-15.6,0.1V43.3h18c13.2,0,22.8,0.3,29,0.9c17.3,1.6,30.6,7.4,39.7,17.3c7.8,8.2,11.6,18.7,11.6,31.5
		c0,12.4-4.1,22.7-12.3,30.8c-4.4,4.4-9.4,7.6-15.2,9.7c6.5,2.4,12.1,5.7,16.7,9.9c10.7,9.6,16,21.8,16,36.6
		c0,13.2-3.9,24.8-11.8,34.6c-7.2,9-16.7,15.2-28.5,18.6c-9.1,2.6-22.6,3.8-40.6,3.8L1103.3,237.1L1103.3,237.1z"/>
	<path class="st0" d="M1269.7,237.1h-44.1V43.3h44.1V237.1z M1394.7,237.1h-57.2l-56.6-81v-27.2h16.6c12.7,0,21.6-1.1,26.8-3.3
		c9.7-4.1,14.5-11.4,14.5-21.9c0-10-4.2-16.8-12.6-20.4c-5.2-2.3-13.7-3.4-25.4-3.4h-19.9V43.3h17.3c14.9,0,25.6,0.3,32.2,1
		c16.7,1.6,29.2,7,37.8,16.3c9.5,10.3,14.2,23.7,14.2,40c0,20.3-7.6,35.5-22.8,45.4c-8.2,5.4-18.1,8.7-29.7,9.9L1394.7,237.1z"/>
</g>
</svg>
