<?xml version="1.0" encoding="iso-8859-1"?>
<!-- Generator: Adobe Illustrator 16.0.0, SVG Export Plug-In . SVG Version: 6.00 Build 0)  -->
<!DOCTYPE svg PUBLIC "-//W3C//DTD SVG 1.1//EN" "http://www.w3.org/Graphics/SVG/1.1/DTD/svg11.dtd">
<svg version="1.1" id="Layer_1" xmlns="http://www.w3.org/2000/svg" xmlns:xlink="http://www.w3.org/1999/xlink" x="0px" y="0px"
	 width="360.6px" height="29.3px" viewBox="0 0 360.6 29.3" enable-background="new 0 0 360.6 29.3" xml:space="preserve">
<path d="M492.6,14.1c0-7.2-4.9-13.8-15.4-13.8h-6.7v7.1h6.9c4.5,0,7.2,3.1,7.4,6.7c0,4.2-2.7,6.6-7.2,6.6h-7.1v7.2h6.1l7.4,16.8h8.6
	l-8.2-18.2C489.3,24.8,492.6,20.1,492.6,14.1z"/>
<path d="M458.7,19.5c0,8.1-0.2,25.2-0.2,25.2h8.2V0.3h-8.2C458.5,0.3,458.7,8.7,458.7,19.5z"/>
<path d="M434.4-0.3v7.4c2,0.3,3.9,1.4,5.2,2.8c3,3.1,3.1,8.8,3.1,12.7c0,4.1,0,9.6-3.1,12.7c-1.4,1.4-3.3,2.4-5.2,2.8v7.5
	c4.1-0.3,7.8-1.9,10.8-4.9c4.9-4.9,5.6-10.7,5.6-17.9c0-7.2-0.8-13.2-5.6-18C442.4,1.6,438.5,0,434.4-0.3z"/>
<path d="M414.2,22.6c0,7.2,0.8,13,5.6,17.9c2.8,3,6.7,4.5,10.8,4.9v-7.5c-2-0.3-3.9-1.4-5.2-2.8c-3-3.1-3.1-8.6-3.1-12.7
	s0-9.6,3.1-12.7c1.4-1.4,3.3-2.4,5.2-2.8v-7.1c-4.1,0.3-7.8,1.9-10.8,4.9C415,9.4,414.2,15.4,414.2,22.6z"/>
<path d="M380.5,21c0,6,0,23.8,0,23.8h8V27h20.1v-7.4h-20.1V7.7H411V0.3h-30.6C380.5,0.3,380.5,15.9,380.5,21z"/>
</svg>
