<?xml version="1.0" encoding="utf-8"?>
<!-- Generator: Adobe Illustrator 16.0.0, SVG Export Plug-In . SVG Version: 6.00 Build 0)  -->
<!DOCTYPE svg PUBLIC "-//W3C//DTD SVG 1.1//EN" "http://www.w3.org/Graphics/SVG/1.1/DTD/svg11.dtd">
<svg version="1.1" id="Layer_1" xmlns="http://www.w3.org/2000/svg" xmlns:xlink="http://www.w3.org/1999/xlink" x="0px" y="0px"
	 width="206px" height="47px" viewBox="56.73 -6.989 206 47" enable-background="new 56.73 -6.989 206 47" xml:space="preserve">
<rect x="-5.2" y="-22.095" width="315.081" height="72.901"/>
<g>
	<path fill="#FFFFFF" d="M251.536,3.876c-1.961-2.1-4.69-3.15-7.561-3.43v5.18c1.399,0.21,2.73,0.98,3.64,1.96
		c2.101,2.17,2.171,6.161,2.171,8.89c0,2.871,0,6.721-2.171,8.891c-0.979,0.98-2.31,1.68-3.64,1.959v5.25
		c2.87-0.209,5.46-1.329,7.561-3.43c3.43-3.43,3.92-7.49,3.92-12.529C255.456,11.436,254.896,7.236,251.536,3.876z"/>
	<path fill="#FFFFFF" d="M229.836,16.617c0,5.039,0.56,9.1,3.919,12.529c1.961,2.1,4.691,3.15,7.561,3.43v-5.25
		c-1.4-0.209-2.729-0.98-3.641-1.959c-2.1-2.171-2.17-6.021-2.17-8.891c0-2.87,0-6.72,2.17-8.89c0.98-0.98,2.311-1.68,3.641-1.96
		v-4.97c-2.869,0.14-5.46,1.26-7.561,3.36C230.325,7.376,229.836,11.576,229.836,16.617z"/>
	<path fill="#FFFFFF" d="M219.265,25.576c-1.119,1.33-2.729,1.961-4.689,1.961c-1.75,0-3.5-0.771-4.689-2.101
		c-2.17-2.17-2.17-6.02-2.17-8.89s0-6.72,2.17-8.89c1.189-1.33,2.939-2.1,4.689-2.1c1.961,0,3.711,0.63,4.689,1.96
		c0.771,0.98,1.331,1.96,1.4,3.29h5.74c-0.209-2.38-1.189-4.83-2.939-6.72c-2.311-2.38-5.601-3.64-8.891-3.64
		c-3.289,0-6.369,1.12-8.75,3.5c-3.43,3.43-3.85,7.56-3.85,12.6c0,5.039,0.42,9.24,3.85,12.6c2.311,2.31,5.461,3.43,8.75,3.43
		c3.29,0,6.58-1.189,8.891-3.64c1.89-1.75,2.73-4.27,3.08-6.931h-5.811C220.596,23.546,220.036,24.597,219.265,25.576z"/>
	<path fill="#FFFFFF" d="M186.995,5.556c1.961,0,3.711,0.63,4.69,1.96c0.771,0.98,1.329,1.96,1.4,3.29h5.81
		c-0.21-2.38-1.189-4.83-2.939-6.72c-2.311-2.38-5.601-3.64-8.891-3.64s-6.37,1.12-8.75,3.5c-3.43,3.43-3.85,7.56-3.85,12.601
		c0,5.039,0.42,9.238,3.85,12.6c2.31,2.31,5.46,3.43,8.75,3.43s6.58-1.19,8.891-3.641c1.75-1.75,2.729-4.27,2.939-6.93h-5.74
		c-0.141,1.33-0.63,2.45-1.4,3.43c-1.119,1.33-2.729,1.961-4.689,1.961c-1.75,0-3.5-0.77-4.69-2.1
		c-2.169-2.17-2.169-6.02-2.169-8.891c0-2.871,0-6.72,2.169-8.89C183.495,6.326,185.245,5.556,186.995,5.556z"/>
	<path fill="#FFFFFF" d="M156.405,1.496c0,0-3.15,9.24-4.27,12.181c-1.68,4.689-6.58,18.899-6.58,18.899h5.74l1.96-5.949h9.66
		l-1.75-5.181h-6.23l4.41-13.09l8.26,24.149h5.95l-10.99-31.01H156.405z"/>
	<path fill="#FFFFFF" d="M139.465,16.617c2.66-1.19,3.85-4.061,3.85-6.581c0-2.66-1.33-5.18-3.64-6.72c-2.1-1.4-4.62-1.75-7.14-1.75
		h-2.521v4.831h2.73c2.52,0,4.83,0.979,4.97,3.919c0,2.94-2.17,3.851-4.69,3.851h-2.939v4.689h2.87c2.94,0,5.39,1.19,5.25,4.62
		c0,3.08-2.87,4.061-5.46,4.061h-2.66v5.039h2.52c2.94,0,5.81-0.209,8.26-2.1c2.17-1.75,3.15-4.199,3.15-6.93
		C144.015,20.676,142.475,17.947,139.465,16.617z"/>
	<path fill="#FFFFFF" d="M120.215,21.306c0,3.709,0.07,11.27,0.07,11.27h5.6V1.496h-5.6C120.286,7.376,120.215,5.486,120.215,21.306
		z"/>
	<path fill="#FFFFFF" d="M104.605,0.446v5.18c1.4,0.21,2.73,0.98,3.64,1.96c2.1,2.17,2.17,6.161,2.17,8.89
		c0,2.871,0,6.721-2.17,8.891c-0.98,0.98-2.31,1.68-3.64,1.959v5.25c2.87-0.209,5.46-1.329,7.56-3.43
		c3.43-3.43,3.92-7.49,3.92-12.529c0-5.041-0.561-9.241-3.92-12.601C110.206,1.776,107.475,0.656,104.605,0.446z"/>
	<path fill="#FFFFFF" d="M90.465,16.617c0,5.039,0.56,9.1,3.92,12.529c1.96,2.1,4.689,3.15,7.56,3.43v-5.25
		c-1.4-0.209-2.73-0.98-3.64-1.959c-2.1-2.171-2.17-6.021-2.17-8.891c0-2.87,0-6.72,2.17-8.89c0.98-0.98,2.31-1.68,3.64-1.96v-4.97
		c-2.871,0.21-5.46,1.33-7.56,3.43C91.025,7.376,90.465,11.576,90.465,16.617z"/>
	<path fill="#FFFFFF" d="M64.005,6.746h9.24c0,0,0,8.68,0,11.55c0,3.64,0,14.279,0,14.279h5.6V6.746h9.24v-5.32H64.075L64.005,6.746
		L64.005,6.746z"/>
</g>
</svg>
