<?xml version="1.0" encoding="utf-8"?>
<!-- Generator: Adobe Illustrator 16.0.0, SVG Export Plug-In . SVG Version: 6.00 Build 0)  -->
<!DOCTYPE svg PUBLIC "-//W3C//DTD SVG 1.1//EN" "http://www.w3.org/Graphics/SVG/1.1/DTD/svg11.dtd">
<svg version="1.1" id="Layer_1" xmlns="http://www.w3.org/2000/svg" xmlns:xlink="http://www.w3.org/1999/xlink" x="0px" y="0px"
	 width="144.799px" height="44.6px" viewBox="-0.2 -1.3 144.799 44.6" enable-background="new -0.2 -1.3 144.799 44.6"
	 xml:space="preserve">
<rect x="-16.1" y="-11.866" width="192.334" height="63.833"/>
<path fill="#FCFCFC" d="M113.099,19.3c0,6,0,24,0,24h31.5v-7.5h-23.5V23.7H141.8v-7.3h-20.701v-10.3h23.5v-7.4h-31.5
	C113.099-1.3,113.099,14.101,113.099,19.3z"/>
<path fill="#FCFCFC" d="M80.701,30.2L69.1-1.3H58.3c0,0,0,14.9,0,19.7c0,6.1,0,24.6,0,24.6h7.8V11L77.5,42.3h6l11.4-31V43h7.801
	V-1.3H92.4L80.701,30.2z"/>
<path fill="#FCFCFC" d="M39.4,26.5c0,6.7,0.2,16.601,0.2,16.601h8.2V-1.3h-8.2C39.6-1.3,39.4,22.101,39.4,26.5z"/>
<path fill="#FCFCFC" d="M-0.2,6.3H13c0,0,0,13.5,0,18c0,4.7,0,18.801,0,18.801h8V6.3h13.201v-7.6H-0.1L-0.2,6.3L-0.2,6.3z"/>
</svg>
