<?xml version="1.0" encoding="iso-8859-1"?>
<!-- Generator: Adobe Illustrator 16.0.0, SVG Export Plug-In . SVG Version: 6.00 Build 0)  -->
<!DOCTYPE svg PUBLIC "-//W3C//DTD SVG 1.1//EN" "http://www.w3.org/Graphics/SVG/1.1/DTD/svg11.dtd">
<svg version="1.1" id="Layer_1" xmlns="http://www.w3.org/2000/svg" xmlns:xlink="http://www.w3.org/1999/xlink" x="0px" y="0px"
	 width="360.6px" height="29.3px" viewBox="0 0 360.6 29.3" enable-background="new 0 0 360.6 29.3" xml:space="preserve">
<path d="M633.1,12.1c-1.8-1.9-4.3-2.9-6.9-3.1v4.7c1.3,0.2,2.5,0.9,3.3,1.8c1.9,2,2,5.6,2,8.1c0,2.6,0,6.1-2,8.1
	c-0.9,0.9-2.1,1.5-3.3,1.8v4.8c2.6-0.2,5-1.2,6.9-3.1c3.1-3.1,3.6-6.8,3.6-11.4C636.7,19,636.2,15.2,633.1,12.1z"/>
<path d="M613.3,23.6c0,4.6,0.5,8.3,3.6,11.4c1.8,1.9,4.3,2.9,6.9,3.1v-4.8c-1.3-0.2-2.5-0.9-3.3-1.8c-1.9-2-2-5.5-2-8.1s0-6.1,2-8.1
	c0.9-0.9,2.1-1.5,3.3-1.8V9c-2.6,0.2-5,1.2-6.9,3.1C613.8,15.2,613.3,19,613.3,23.6z"/>
<path d="M603.7,31.6c-1,1.2-2.5,1.8-4.3,1.8c-1.6,0-3.2-0.7-4.3-1.9c-2-2-2-5.5-2-8.1s0-6.1,2-8.1c1.1-1.2,2.7-1.9,4.3-1.9
	c1.8,0,3.4,0.6,4.3,1.8c0.7,0.9,1.2,1.8,1.3,3h5.2c-0.2-2.2-1.1-4.4-2.7-6.1c-2.1-2.2-5.1-3.3-8.1-3.3s-5.8,1-8,3.2
	c-3.1,3.1-3.5,6.9-3.5,11.5c0,4.6,0.4,8.4,3.5,11.5c2.1,2.1,5,3.1,8,3.1s6-1.1,8.1-3.3c1.7-1.6,2.5-3.9,2.8-6.3H605
	C604.9,29.7,604.4,30.7,603.7,31.6z"/>
<path d="M574.3,13.4c1.8,0,3.4,0.6,4.3,1.8c0.7,0.9,1.2,1.8,1.3,3h5.3c-0.2-2.2-1.1-4.4-2.7-6.1c-2.1-2.2-5.1-3.3-8.1-3.3
	s-5.8,1-8,3.2c-3.1,3.1-3.5,6.9-3.5,11.5c0,4.6,0.4,8.4,3.5,11.5c2.1,2.1,5,3.1,8,3.1s6-1.1,8.1-3.3c1.6-1.6,2.5-3.9,2.7-6.3h-5.3
	c-0.1,1.2-0.6,2.2-1.3,3.1c-1,1.2-2.5,1.8-4.3,1.8c-1.6,0-3.2-0.7-4.3-1.9c-2-2-2-5.5-2-8.1s0-6.1,2-8.1
	C571.1,14.1,572.7,13.4,574.3,13.4z"/>
<path d="M546.4,9.4c0,0-2.9,8.4-3.9,11.1c-1.5,4.3-6,17.2-6,17.2h5.2l1.8-5.4h8.8l-1.6-4.7H545l4-11.9l7.5,22h5.4L552,9.4H546.4z"/>
<path d="M531,23.1c2.4-1.1,3.5-3.7,3.5-6c0-2.4-1.2-4.7-3.3-6.1c-1.9-1.3-4.2-1.6-6.5-1.6h-2.3v4.4h2.5c2.3,0,4.4,0.9,4.5,3.6
	c0,2.7-2,3.5-4.3,3.5h-2.7v4.3h2.6c2.7,0,4.9,1.1,4.8,4.2c0,2.8-2.6,3.7-5,3.7h-2.4v4.6h2.3c2.7,0,5.3-0.2,7.5-1.9
	c2-1.6,2.9-3.8,2.9-6.3C535.1,26.8,533.7,24.3,531,23.1z"/>
<path d="M513.4,27.4c0,3.4,0.1,10.3,0.1,10.3h5.1V9.4h-5.1C513.5,14.7,513.4,13,513.4,27.4z"/>
<path d="M499.2,9v4.7c1.3,0.2,2.5,0.9,3.3,1.8c1.9,2,2,5.6,2,8.1c0,2.6,0,6.1-2,8.1c-0.9,0.9-2.1,1.5-3.3,1.8v4.8
	c2.6-0.2,5-1.2,6.9-3.1c3.1-3.1,3.6-6.8,3.6-11.4s-0.5-8.4-3.6-11.5C504.3,10.2,501.8,9.2,499.2,9z"/>
<path d="M486.3,23.6c0,4.6,0.5,8.3,3.6,11.4c1.8,1.9,4.3,2.9,6.9,3.1v-4.8c-1.3-0.2-2.5-0.9-3.3-1.8c-1.9-2-2-5.5-2-8.1s0-6.1,2-8.1
	c0.9-0.9,2.1-1.5,3.3-1.8V9c-2.6,0.2-5,1.2-6.9,3.1C486.8,15.2,486.3,19,486.3,23.6z"/>
<path d="M462.2,14.2h8.4c0,0,0,7.9,0,10.5c0,3.3,0,13,0,13h5.1V14.2h8.4V9.4h-21.9V14.2z"/>
<path d="M453.3,18.2c0-4.6-3.1-8.8-9.8-8.8h-4.3v4.5h4.4c2.9,0,4.6,2,4.7,4.3c0,2.7-1.7,4.2-4.6,4.2h-4.5V27h3.9l4.7,10.7h5.5
	l-5.2-11.6C451.2,25,453.3,22,453.3,18.2z"/>
<path d="M431.7,21.6c0,5.2-0.1,16.1-0.1,16.1h5.2V9.4h-5.2C431.6,9.4,431.7,14.7,431.7,21.6z"/>
<path d="M416.2,9v4.7c1.3,0.2,2.5,0.9,3.3,1.8c1.9,2,2,5.6,2,8.1c0,2.6,0,6.1-2,8.1c-0.9,0.9-2.1,1.5-3.3,1.8v4.8
	c2.6-0.2,5-1.2,6.9-3.1c3.1-3.1,3.6-6.8,3.6-11.4s-0.5-8.4-3.6-11.5C421.3,10.2,418.8,9.2,416.2,9z"/>
<path d="M403.3,23.6c0,4.6,0.5,8.3,3.6,11.4c1.8,1.9,4.3,2.9,6.9,3.1v-4.8c-1.3-0.2-2.5-0.9-3.3-1.8c-1.9-2-2-5.5-2-8.1s0-6.1,2-8.1
	c0.9-0.9,2.1-1.5,3.3-1.8V9c-2.6,0.2-5,1.2-6.9,3.1C403.8,15.2,403.3,19,403.3,23.6z"/>
<path d="M381.8,22.6c0,3.8,0,15.2,0,15.2h5.1V26.4h12.8v-4.7h-12.8v-7.6h14.4V9.4h-19.5C381.8,9.4,381.8,19.3,381.8,22.6z"/>
<path d="M348.4,22.5c0,3.8,0,15.3,0,15.3h20.1V33h-15v-7.7h13.2v-4.6h-13.2v-6.6h15V9.4h-20.1C348.4,9.4,348.4,19.2,348.4,22.5z"/>
<path d="M327.7,29.5l-7.4-20.1h-6.9c0,0,0,9.5,0,12.6c0,3.9,0,15.7,0,15.7h5V17.3l7.3,20h3.8l7.3-19.8v20.2h5V9.4h-6.6L327.7,29.5z"
	/>
<path d="M301.4,20.6c0,4.3,0.1,17.1,0.1,17.1h5.2V9.4h-5.2C301.5,9.4,301.4,17.8,301.4,20.6z"/>
<path d="M276.1,14.2h8.4c0,0,0,8.6,0,11.5c0,3,0,12,0,12h5.1V14.2h8.4V9.4h-21.9V14.2z"/>
</svg>
