<?xml version="1.0" encoding="utf-8"?>
<!-- Generator: Adobe Illustrator 19.2.1, SVG Export Plug-In . SVG Version: 6.00 Build 0)  -->
<svg version="1.1" id="Calque_1" xmlns="http://www.w3.org/2000/svg" xmlns:xlink="http://www.w3.org/1999/xlink" x="0px" y="0px"
	 viewBox="0 0 500 500" style="enable-background:new 0 0 500 500;" xml:space="preserve">
<style type="text/css">
	.st0{fill:none;stroke:#FFFFFF;stroke-width:23;stroke-linejoin:round;stroke-miterlimit:10;}
</style>
<path class="st0" d="M409.9,74.4L231.5,405.1c-6.6,12.3-19.5,20-33.4,20c-0.4,0-0.9,0-1.3,0c-14.4-0.5-27.3-9.1-33.3-22.2L82.9,226
	c-8.7-19.1-0.3-41.6,18.8-50.3s41.6-0.3,50.3,18.8l48.8,107.2L346,32.7c-29.4-13-61.9-20.2-96-20.2C118.8,12.5,12.5,118.8,12.5,250
	S118.8,487.5,250,487.5S487.5,381.2,487.5,250C487.5,180.4,457.6,117.8,409.9,74.4z"/>
</svg>
