<?xml version="1.0" encoding="utf-8"?>
<!-- Generator: Adobe Illustrator 19.2.1, SVG Export Plug-In . SVG Version: 6.00 Build 0)  -->
<svg version="1.1" id="Calque_1" xmlns="http://www.w3.org/2000/svg" xmlns:xlink="http://www.w3.org/1999/xlink" x="0px" y="0px"
	 viewBox="0 0 900 900" style="enable-background:new 0 0 900 900;" xml:space="preserve">
<style type="text/css">
	.st0{fill:#FFFFFF;}
	.st1{fill:none;}
</style>
<g>
	<path class="st0" d="M158.3,138l-0.3,36.3l-7.2,1.6c-2.2-5.8-5.6-10.9-10.1-15.2c-4.5-4.3-8.8-6.4-12.7-6.4c-1.9,0-4.5,0.3-7.9,0.9
		c-3.4,0.7-6.2,1.2-8.4,1.7L93,161.1l-0.5,55.6l13-2.9c4.8-1.1,8.4-2.4,10.9-4.1c2.5-1.7,4.7-3.7,6.6-6.1c1.5-1.9,3-4.9,4.5-9.3
		c1.6-4.3,2.5-7.9,3-10.8l7.2-1.6l-0.6,59.4l-7.2,1.6l-0.8-3.5c-0.6-2.9-1.6-5.7-2.9-8.6c-1.3-2.9-2.5-4.8-3.6-5.9
		c-2.2-2.1-4.7-3.2-7.7-3.4c-2.9-0.2-6.1,0.1-9.6,0.9l-13,2.9L92.1,265c0,2,0,4.2,0.1,6.5c0.1,2.3,0.3,3.9,0.5,4.9
		c0.9,4.1,2.8,6.3,5.7,6.8c2.9,0.5,8-0.1,15.1-1.7c9.2-2,15.8-3.9,19.8-5.6c4-1.7,6.9-3.6,8.6-5.8c3.1-4,6.6-9.9,10.5-17.6
		c3.9-7.7,6.4-13.4,7.7-16.9l7-1.5l-3,44.9L38.1,306.8l0.1-7.3c1.6-0.4,3.9-1.1,7-2.2c3.1-1,5.3-2,6.7-2.8c2.3-1.4,3.9-3.1,4.8-5.1
		c0.9-2,1.4-4.2,1.4-6.5l0.9-99.5c0-1.4,0-2.6-0.1-3.5c-0.1-0.9-0.2-1.6-0.3-2c-0.6-2.7-2.4-4.5-5.4-5.3c-3-0.9-7.7-1.1-14-0.6
		l0.1-7.3L158.3,138z"/>
	<path class="st0" d="M323.9,101.3l-0.1,7.3c-2.5,0.6-4.7,1.4-6.5,2.4c-1.8,1-3.3,1.9-4.6,2.7c-3.9,2.7-7.2,5.8-10,9.3
		c-2.8,3.5-5.6,7.3-8.5,11.3c-3.9,5.4-8.7,12.2-14.3,20.4c-5.7,8.2-11.1,16-16.3,23.4c8,10.6,14.3,18.8,19,24.6
		c4.7,5.8,10,12.4,15.8,19.7c2.1,2.7,4.6,5.3,7.3,7.8c2.7,2.5,5.9,4.1,9.6,4.8c1.7,0.3,3.6,0.5,5.5,0.5c1.9,0.1,4.5-0.1,7.6-0.6
		l-0.1,7.3l-79.6,17.6l0.1-7.3c8.3-2.4,13.7-4.4,16-5.9c2.3-1.6,3.2-3.3,2.8-5.2c-0.2-1-0.7-2.3-1.5-3.8c-0.8-1.5-2.3-3.9-4.6-7.1
		c-1.9-2.7-4.5-6.4-8-11.1c-3.5-4.8-7.4-10-11.8-15.7c-4.6,6.6-9,13.2-13.2,19.8c-4.2,6.5-7.7,12-10.6,16.5
		c-3.6,5.7-5.7,9.6-6.2,11.4c-0.6,1.9-0.7,3.2-0.5,4.1c0.3,1.3,1.5,2.2,3.6,2.6c2.1,0.5,6.1,0.3,11.8-0.5l-0.1,7.3l-54.8,12.2
		l0.1-7.3c2.7-0.8,4.7-1.5,5.9-2.1c1.3-0.6,3-1.6,5-3c3.7-2.7,7-5.7,9.7-9c2.7-3.3,5.7-7.2,8.8-11.7c5-7.1,10.2-14.5,15.5-22
		c5.3-7.6,11.5-16.5,18.5-26.8c-6.2-8.2-11.5-15.1-15.9-20.7c-4.5-5.6-9.8-12.3-15.9-20c-2.4-3-4.9-5.6-7.6-7.9
		c-2.6-2.3-5.9-3.8-9.6-4.6c-1.9-0.4-3.7-0.6-5.4-0.7c-1.7-0.1-4.2,0.1-7.6,0.6l0.1-7.3l79.8-17.7l-0.1,7.3c-5.1,1.4-9.7,3-13.7,4.8
		c-4,1.8-5.8,4-5.2,6.6c0.2,1.1,0.7,2.3,1.5,3.6c0.7,1.3,2,3.4,3.9,6.1c2,2.9,4.2,6,6.7,9.3c2.5,3.3,6.2,8.3,11,14.9
		c5.1-7.5,9.5-14.1,13.1-19.6c3.6-5.6,6.6-10.2,8.7-14c3.3-5.7,5.1-9.1,5.3-10.3c0.2-1.2,0.3-2.2,0.1-2.9c-0.1-0.6-0.4-1.1-0.9-1.5
		c-0.5-0.4-1.4-0.8-2.6-1c-1.2-0.2-2.8-0.3-4.7-0.2c-1.9,0.1-4.3,0.3-7.3,0.7l0.1-7.3L323.9,101.3z"/>
	<path class="st0" d="M467.4,124c2.5,11.5,2.8,23,0.9,34.6c-1.9,11.6-5.9,22.2-11.9,31.8c-6.2,9.8-14.1,18.3-23.8,25.4
		c-9.7,7.1-21.4,12.1-35,15.2c-17.8,3.9-33.6,2.1-47.3-5.7c-13.7-7.7-22.4-19.9-26.1-36.5c-2.7-12.1-2.9-24-0.6-35.7
		c2.3-11.7,6.6-22.4,13.1-32.2c6.3-9.6,14.3-17.8,24.1-24.7c9.8-6.8,20.7-11.6,32.6-14.2c17.9-4,33.8-2.2,47.6,5.3
		C454.8,94.8,463.6,107,467.4,124z M428.5,185.1c2.4-9.7,3.5-20,3.3-30.8c-0.2-10.8-1.4-21.2-3.6-31.3c-2.6-11.6-6.8-20.3-12.8-26
		c-5.9-5.7-13.3-7.6-22.2-5.6c-7.8,1.7-14.1,5.9-19.1,12.4c-5,6.6-8.6,14.5-11,23.8c-2.4,9.3-3.5,19.4-3.4,30.4
		c0.1,11,1.3,21.7,3.6,32c2.5,11.3,6.7,19.8,12.7,25.7c6,5.9,13.4,7.8,22.3,5.8c7.7-1.7,14.1-5.9,19.2-12.7
		C422.6,202.1,426.3,194.2,428.5,185.1z"/>
	<path class="st0" d="M528.1,175.5c0,1.1,0,2.2,0.1,3.2c0.1,1,0.1,1.7,0.2,2.2c0.6,2.9,2.3,4.7,4.9,5.5c2.7,0.8,7.4,0.8,14.1,0.1
		l-0.1,7.3l-73.2,16.2l0.1-7.3c1.6-0.4,3.9-1.2,7-2.3c3.1-1.1,5.3-2.1,6.7-2.9c2.3-1.4,3.9-3,4.9-5c0.9-1.9,1.4-4.1,1.4-6.4
		l0.9-99.5c0-1.4,0-2.6-0.1-3.5s-0.2-1.6-0.3-2c-0.6-2.7-2.4-4.5-5.4-5.3c-3-0.9-7.7-1.1-14-0.6l0.1-7.3L550,51.2
		c15.5-3.4,27.7-3.8,36.4-1.2c8.8,2.7,14.1,8.4,16.1,17.4c2.3,10.5,0.5,20.1-5.5,28.9c-6,8.8-15.5,16.3-28.6,22.7
		c3.7,4.2,8.3,9.4,13.8,15.6c5.6,6.2,12,13.3,19.3,21.4c2.1,2.4,4.8,5.1,8,8c3.2,2.9,6.3,4.6,9.2,4.9c1.4,0.1,3.4,0.1,5.8-0.1
		c2.4-0.2,4.2-0.4,5.2-0.5l-0.2,7.3l-49.4,11c-9-12.4-16.5-22.2-22.6-29.5c-6.1-7.3-13.4-15.6-22.2-25l-6.9,1.5L528.1,175.5z
		 M565.1,77.7c-1.5-6.8-4.8-11.4-9.8-13.8c-5-2.4-11.6-2.7-19.8-0.9l-6.5,1.4l-0.4,60.6l9.2-2c10.4-2.3,18.1-7.4,23.4-15.5
		C566.5,99.5,567.8,89.6,565.1,77.7z"/>
</g>
<g>
	<path class="st0" d="M260.4,269.8l-0.1,7.3c-1.9,0.6-4.3,1.4-7.1,2.6c-2.8,1.2-4.9,2.1-6.4,2.9c-2.4,1.4-4.1,3.1-4.9,5.2
		c-0.8,2.1-1.3,4.2-1.3,6.4l-0.4,99.5c0,1,0,2,0.1,3c0,1,0.1,1.8,0.2,2.5c0.6,2.9,2.3,4.7,4.9,5.5c2.6,0.8,7.5,0.8,14.5,0l-0.1,7.3
		l-73.1,16.2l0.1-7.3c2.5-0.9,5-1.8,7.6-2.8c2.6-1,4.5-1.9,5.8-2.7c2.4-1.5,4.1-3.3,5.2-5.2c1-1.9,1.6-4.3,1.6-7l0.5-106.7l-1,0.2
		L159.2,432l-12,2.7c-0.7-2.5-2-6.3-4-11.7c-2-5.3-3.8-10.3-5.5-15L104,317.8l-1,0.2l-0.7,87.2c-0.1,3.3,0,6.6,0.2,9.7
		c0.2,3.1,0.6,5.9,1.1,8.2c0.6,2.5,1.3,4.5,2.1,5.8c0.9,1.3,1.9,2.3,3,3.1c1.6,1,4.4,1.7,8.3,2.1c3.9,0.4,6.8,0.5,8.6,0.3l-0.1,7.3
		l-58.3,12.9l0.1-7.3c1.6-0.6,4.2-1.6,7.8-3.1c3.6-1.5,6.6-3.4,8.9-5.6c2.5-2.4,4.2-5.9,5.2-10.4c1-4.5,1.5-11,1.5-19.5l0.7-70.3
		c0-2.4-0.1-4.2-0.2-5.5c-0.1-1.2-0.3-2.4-0.5-3.6c-0.4-2-1.1-3.6-2-5c-0.9-1.3-2-2.4-3.3-3.3c-2.4-1.5-5-2.2-7.8-2.2
		c-2.8,0-5.5,0.2-8.1,0.5l0.1-7.3l62-13.7l32.8,86.3l28.3-82.2c1.2-3.7,2.2-7.5,3-11.4c0.8-3.8,1.2-6.2,1.3-7.2L260.4,269.8z"/>
	<path class="st0" d="M410,291.1c2.5,11.4,2.8,23,0.9,34.6c-1.9,11.6-5.9,22.2-11.9,31.8c-6.2,9.8-14.1,18.3-23.8,25.4
		c-9.7,7.1-21.4,12.1-35,15.2c-17.8,3.9-33.6,2.1-47.3-5.7c-13.7-7.7-22.4-19.9-26.1-36.5c-2.7-12.1-2.9-24-0.6-35.7
		c2.3-11.7,6.6-22.4,13.1-32.2c6.3-9.6,14.3-17.8,24.1-24.7c9.8-6.8,20.7-11.6,32.6-14.2c17.9-4,33.8-2.2,47.6,5.3
		C397.5,261.9,406.3,274.1,410,291.1z M371.2,352.2c2.4-9.7,3.5-20,3.3-30.8c-0.2-10.8-1.4-21.2-3.6-31.3
		c-2.6-11.6-6.8-20.3-12.8-26c-5.9-5.7-13.3-7.6-22.2-5.6c-7.8,1.7-14.1,5.9-19.1,12.4c-5,6.6-8.7,14.5-11,23.8
		c-2.4,9.3-3.5,19.4-3.4,30.4c0.1,11,1.3,21.7,3.6,32c2.5,11.3,6.7,19.8,12.7,25.7c6,5.9,13.4,7.8,22.3,5.8
		c7.7-1.7,14.1-5.9,19.2-12.7C365.3,369.2,369,361.3,371.2,352.2z"/>
</g>
<g>
	<path class="st0" d="M230.4,430.9l-0.4,40.7l-7.3,1.6c-0.7-2.1-1.8-4.7-3.3-7.8c-1.5-3.1-3.2-6.1-5.1-9c-2.1-3-4.1-5.4-6.2-7.2
		c-2-1.8-4.2-2.7-6.4-2.6c-2,0.2-4.4,0.5-7.4,1c-3,0.5-5.6,0.9-7.7,1.4l-4.8,1.1l-1,110.7c0,1.1,0,2.2,0.1,3.2
		c0.1,1,0.1,1.8,0.2,2.2c0.3,1.5,0.9,2.8,1.8,3.9c0.9,1,2.2,1.7,4,2.1c1.7,0.3,4,0.4,7.1,0.4c3.1,0,5.6-0.2,7.5-0.4l-0.1,7.3
		l-75.5,16.7l0.1-7.3c1.8-0.5,4.3-1.4,7.7-2.5c3.3-1.1,5.7-2.1,7.1-3c2.3-1.6,3.9-3.4,4.8-5.4c0.9-2,1.3-4.2,1.3-6.7l1-113.7
		l-3.7,0.8c-2.4,0.5-4.8,1.2-7.2,1.9c-2.4,0.7-5.1,1.6-8.2,2.6c-2.2,0.8-4.5,2.8-6.8,5.8c-2.3,3-4.5,6.3-6.5,9.7
		c-2.4,4.3-4.3,8.1-5.7,11.4c-1.4,3.4-2.6,6.4-3.5,9.2l-7.3,1.6l0.4-40.7L230.4,430.9z"/>
	<path class="st0" d="M401.4,393l-0.1,7.3c-1.9,0.6-4.4,1.4-7.2,2.6c-2.9,1.2-5,2.2-6.5,2.9c-2.4,1.4-4.1,3.1-4.9,5.1
		c-0.9,2-1.3,4.2-1.3,6.5l-0.8,99.6c0,1.1,0,2.2,0.1,3.2c0.1,1,0.1,1.7,0.2,2.2c0.6,2.9,2.3,4.7,5.1,5.5c2.8,0.8,7.5,0.8,14.4,0
		l-0.1,7.3L327,551.5l0.1-7.3c1.6-0.5,3.9-1.2,6.9-2.1c3-0.9,5.1-1.8,6.3-2.6c2.3-1.4,3.9-3.1,4.9-5.1c1-2,1.5-4.1,1.5-6.5l0.4-49.8
		l-56.9,12.6l-0.4,46.6c0,1.1,0,2.2,0.1,3.2c0.1,1,0.1,1.7,0.3,2.2c0.6,2.9,2.3,4.7,4.9,5.5c2.6,0.8,7.4,0.8,14.1,0.1l-0.1,7.3
		l-73.2,16.2l0.1-7.3c1.6-0.4,3.9-1.1,7-2.2c3.1-1,5.3-2,6.7-2.8c2.3-1.4,3.9-3.1,4.8-5.1c0.9-2,1.4-4.2,1.4-6.5l0.9-99.5
		c0-1.4,0-2.6-0.1-3.5c-0.1-0.9-0.2-1.6-0.3-2c-0.6-2.7-2.4-4.5-5.4-5.3s-7.7-1.1-14-0.6l0.1-7.3l73.2-16.2l-0.1,7.3
		c-1.9,0.6-4.3,1.4-7,2.6c-2.7,1.1-4.8,2.1-6.3,2.9c-2.5,1.4-4.1,3.2-4.9,5.2c-0.8,2.1-1.2,4.2-1.3,6.4l-0.4,43.2l56.8-12.6l0.3-40
		c0-1.4,0-2.6-0.1-3.5c-0.1-0.9-0.1-1.6-0.3-2c-0.6-2.7-2.4-4.4-5.3-5.3c-2.9-0.9-7.5-1.1-13.8-0.8l0.1-7.3L401.4,393z"/>
	<path class="st0" d="M529.9,364.5l-0.3,36.3l-7.2,1.6c-2.2-5.8-5.6-10.9-10.1-15.2c-4.5-4.3-8.8-6.4-12.7-6.4
		c-1.9,0-4.5,0.3-7.9,0.9c-3.4,0.7-6.2,1.2-8.4,1.7l-18.7,4.2l-0.5,55.6l13-2.9c4.8-1.1,8.4-2.4,10.9-4.1c2.5-1.6,4.7-3.7,6.6-6.1
		c1.5-1.9,3-4.9,4.5-9.3c1.6-4.3,2.5-7.9,3-10.8l7.2-1.6l-0.5,59.4l-7.2,1.6l-0.8-3.5c-0.6-2.9-1.6-5.7-2.9-8.6
		c-1.3-2.9-2.5-4.8-3.6-5.9c-2.2-2-4.8-3.2-7.7-3.4c-2.9-0.2-6.1,0.1-9.6,0.9l-13,2.9l-0.4,39.6c0,2,0,4.2,0.1,6.5
		c0.1,2.3,0.3,3.9,0.5,4.9c0.9,4.1,2.8,6.3,5.7,6.8c2.9,0.5,8-0.1,15.1-1.7c9.2-2,15.8-3.9,19.8-5.6c4-1.7,6.9-3.6,8.6-5.8
		c3.1-4,6.6-9.9,10.5-17.7c3.9-7.7,6.4-13.4,7.7-16.9l7-1.5l-3,44.9l-126.1,27.9l0.1-7.3c1.6-0.4,3.9-1.1,7-2.2c3.1-1,5.3-2,6.7-2.8
		c2.3-1.4,3.9-3.1,4.8-5.1c0.9-2,1.4-4.2,1.4-6.5l0.9-99.5c0-1.4,0-2.6-0.1-3.5c-0.1-0.9-0.2-1.6-0.3-2c-0.6-2.7-2.4-4.5-5.4-5.4
		c-3-0.9-7.7-1.1-14-0.6l0.1-7.3L529.9,364.5z"/>
	<path class="st0" d="M622.1,490c-8.7,1.9-17.1,2.4-25.1,1.5c-8-0.9-15.3-3.2-21.7-6.9c-6.4-3.7-11.9-8.6-16.4-15
		c-4.5-6.3-7.8-13.9-9.7-22.7c-2.6-11.7-2.9-23.1-0.9-34.4c2-11.3,6-21.8,12.1-31.6c5.8-9.4,13.6-17.7,23.4-24.9
		c9.8-7.2,20.8-12.1,33-14.8c7.4-1.6,15.1-2.4,23-2.3c8,0.1,14.1,1,18.4,2.5l6-6.8l8.3-1.8l0.4,51.8l-8.4,1.9
		c-4.5-14.2-10.7-24.3-18.8-30.4c-8.1-6.1-17.1-8.1-27.2-5.8c-7.4,1.6-13.7,5.3-19,11.1c-5.3,5.8-9.3,13.8-12.1,23.9
		c-2.3,8.4-3.4,17.8-3.2,28.1c0.1,10.4,1.2,19.9,3.1,28.5c2.8,12.7,8.1,21.9,15.8,27.6c7.7,5.7,16.8,7.4,27.2,5.1
		c9.1-2,17-6.4,23.6-13.2c6.6-6.8,12.5-15.8,17.5-27l8.4,3.3c-2,5.5-4.7,11.1-8,16.7c-3.3,5.6-7.3,10.8-12.1,15.4
		c-5,4.9-10.3,9-16.1,12.3C637.8,485.5,630.7,488.1,622.1,490z"/>
	<path class="st0" d="M761.4,455.2l0.1-7.3c6.4-2,11.4-3.9,14.8-5.8c3.4-1.9,5-3.6,4.7-4.9c-0.3-1.1-0.5-2.1-0.8-2.9
		c-0.3-0.8-0.7-1.7-1.1-2.8l-10.7-25.6l-46.6,10.3c-1,2.7-2.3,6.2-3.7,10.6c-1.5,4.4-2.7,8.1-3.7,11.2c-1.5,4.9-2.2,8.1-2.3,9.8
		c-0.1,1.7,0,2.7,0.1,3.2c0.4,1.9,2.3,3.1,5.5,3.7c3.3,0.6,8,0.5,14.3-0.3l-0.1,7.3l-56.9,12.6l0.1-7.3c1.8-0.5,4.1-1.4,6.8-2.5
		c2.7-1.1,4.9-2.4,6.6-3.9c2.4-2,4.5-4.4,6.3-7.1c1.9-2.7,3.5-5.9,4.8-9.6c8.5-22.7,16.3-43.7,23.4-62.9
		c7.1-19.2,15.3-41.5,24.6-66.9l18.9-4.2c11.2,27.4,20.5,50.1,27.8,68C801.5,396,807.8,411,813,423c0.7,1.8,1.7,3.4,3,4.8
		c1.3,1.4,3.1,2.5,5.4,3.5c1.8,0.7,3.8,1,6.1,1.1c2.3,0,4.4-0.1,6.4-0.4l-0.1,7.3L761.4,455.2z M764.5,397.4l-19.2-47.5l-20,56.2
		L764.5,397.4z"/>
</g>
<g>
	<path class="st0" d="M210.9,735.8c-8.7,1.9-17.1,2.4-25.1,1.5c-8-0.9-15.3-3.2-21.7-6.9c-6.4-3.7-11.9-8.6-16.4-15
		c-4.5-6.3-7.8-13.9-9.7-22.7c-2.6-11.7-2.9-23.1-0.9-34.4c2-11.3,6-21.8,12.1-31.6c5.8-9.4,13.6-17.7,23.4-24.9
		c9.8-7.2,20.8-12.1,33-14.8c7.4-1.6,15.1-2.4,23-2.3c8,0.1,14.1,1,18.4,2.5l6-6.8l8.3-1.8l0.4,51.8l-8.4,1.9
		c-4.5-14.2-10.7-24.3-18.8-30.4c-8.1-6.1-17.1-8.1-27.2-5.8c-7.4,1.6-13.7,5.3-19,11.1c-5.3,5.8-9.3,13.8-12.1,23.9
		c-2.3,8.4-3.4,17.8-3.2,28.1c0.1,10.4,1.2,19.9,3.1,28.5c2.8,12.7,8.1,21.9,15.8,27.6c7.7,5.7,16.8,7.4,27.2,5.1
		c9.1-2,17-6.4,23.6-13.2c6.6-6.8,12.5-15.8,17.5-27l8.4,3.3c-2,5.5-4.7,11.1-8,16.7c-3.3,5.6-7.3,10.8-12.1,15.4
		c-5,4.9-10.3,9-16.1,12.3C226.6,731.3,219.5,733.9,210.9,735.8z"/>
	<path class="st0" d="M392.4,549.6l-0.3,36.3l-7.2,1.6c-2.2-5.8-5.6-10.9-10.1-15.2c-4.5-4.3-8.8-6.4-12.7-6.4
		c-1.9,0-4.5,0.3-7.9,0.9c-3.4,0.7-6.2,1.2-8.4,1.7l-18.7,4.2l-0.5,55.6l13-2.9c4.8-1.1,8.4-2.4,10.9-4.1c2.5-1.7,4.7-3.7,6.6-6.1
		c1.5-1.9,3-4.9,4.5-9.3c1.6-4.3,2.5-7.9,3-10.8l7.2-1.6l-0.5,59.4l-7.2,1.6l-0.8-3.5c-0.6-2.9-1.6-5.7-2.9-8.6
		c-1.3-2.9-2.5-4.8-3.6-5.9c-2.2-2-4.7-3.2-7.7-3.4c-2.9-0.2-6.1,0.1-9.6,0.9l-13,2.9l-0.4,39.6c0,2,0,4.2,0.1,6.5
		c0.1,2.3,0.3,3.9,0.5,4.9c0.9,4.1,2.8,6.3,5.7,6.8c2.9,0.5,8-0.1,15.1-1.7c9.2-2,15.8-3.9,19.8-5.6c4-1.7,6.9-3.6,8.6-5.8
		c3.1-4,6.6-9.9,10.5-17.6c3.9-7.7,6.4-13.4,7.7-16.9l7-1.5l-3,44.9l-126.1,27.9l0.1-7.3c1.6-0.4,3.9-1.1,7-2.2c3.1-1,5.3-2,6.7-2.8
		c2.3-1.4,3.9-3.1,4.8-5.1c0.9-2,1.4-4.2,1.4-6.5l0.9-99.5c0-1.4,0-2.6-0.1-3.5c-0.1-0.9-0.2-1.6-0.3-2c-0.6-2.7-2.4-4.5-5.4-5.4
		c-3-0.9-7.7-1.1-14-0.6l0.1-7.3L392.4,549.6z"/>
	<path class="st0" d="M489.3,670.2l0.1-7.3c6.4-2,11.4-3.9,14.8-5.8c3.4-1.9,5-3.6,4.7-4.9c-0.3-1.1-0.5-2.1-0.8-2.9
		c-0.3-0.8-0.7-1.7-1.1-2.8l-10.7-25.6l-46.6,10.3c-1,2.7-2.3,6.2-3.7,10.6c-1.5,4.4-2.7,8.1-3.7,11.2c-1.5,4.9-2.2,8.1-2.3,9.8
		c-0.1,1.7,0,2.7,0.1,3.2c0.4,1.9,2.3,3.1,5.5,3.7c3.3,0.6,8,0.5,14.3-0.3l-0.1,7.3l-56.9,12.6l0.1-7.3c1.8-0.5,4.1-1.4,6.8-2.5
		c2.7-1.1,4.9-2.4,6.6-3.9c2.4-2,4.5-4.4,6.3-7.1c1.9-2.7,3.5-5.9,4.8-9.6c8.5-22.7,16.3-43.7,23.4-62.9
		c7.1-19.2,15.3-41.5,24.6-66.9l18.9-4.2c11.2,27.4,20.5,50.1,27.8,68c7.3,17.9,13.6,32.9,18.8,44.9c0.7,1.8,1.7,3.4,3,4.8
		c1.3,1.4,3.1,2.5,5.4,3.5c1.8,0.7,3.8,1,6.1,1.1c2.3,0,4.4-0.1,6.4-0.4l-0.1,7.3L489.3,670.2z M492.5,612.3l-19.2-47.5l-20,56.2
		L492.5,612.3z"/>
	<path class="st0" d="M685.2,484.7L685,521l-7.2,1.6c-2.2-5.8-5.6-10.9-10.1-15.2c-4.5-4.3-8.8-6.4-12.7-6.4c-1.9,0-4.5,0.3-7.9,0.9
		c-3.4,0.7-6.2,1.2-8.4,1.7l-18.7,4.2l-0.5,55.6l13-2.9c4.8-1.1,8.4-2.4,10.9-4.1c2.5-1.7,4.7-3.7,6.6-6.1c1.5-1.9,3-4.9,4.5-9.3
		c1.6-4.3,2.5-7.9,3-10.8l7.2-1.6L664,588l-7.2,1.6l-0.8-3.5c-0.6-2.9-1.6-5.7-2.9-8.6c-1.3-2.9-2.5-4.8-3.6-5.9
		c-2.2-2-4.7-3.2-7.7-3.4c-2.9-0.2-6.1,0.1-9.6,0.9l-13,2.9l-0.4,39.6c0,2,0,4.2,0.1,6.5c0.1,2.3,0.3,3.9,0.5,4.9
		c0.9,4.1,2.8,6.3,5.7,6.8c2.9,0.5,8-0.1,15.1-1.7c9.2-2,15.8-3.9,19.8-5.6c4-1.7,6.9-3.6,8.6-5.8c3.1-4,6.6-9.9,10.5-17.6
		c3.9-7.7,6.4-13.4,7.7-16.9l7-1.5l-3,44.9l-126.1,27.9l0.1-7.3c1.6-0.4,3.9-1.1,7-2.2c3.1-1,5.3-2,6.7-2.8c2.3-1.4,3.9-3.1,4.8-5.1
		c0.9-2,1.4-4.2,1.4-6.5l0.9-99.5c0-1.4,0-2.6-0.1-3.5s-0.2-1.6-0.3-2c-0.6-2.7-2.4-4.5-5.4-5.4c-3-0.9-7.7-1.1-14-0.6l0.1-7.3
		L685.2,484.7z"/>
</g>
<g>
	<path class="st0" d="M195,789.6l0-1.8c1.6-0.5,2.8-1,3.7-1.5c0.9-0.5,1.2-0.9,1.2-1.2c-0.1-0.3-0.1-0.5-0.2-0.7s-0.2-0.4-0.3-0.7
		l-2.7-6.4l-11.7,2.6c-0.3,0.7-0.6,1.6-0.9,2.6c-0.4,1.1-0.7,2-0.9,2.8c-0.4,1.2-0.6,2-0.6,2.5c0,0.4,0,0.7,0,0.8
		c0.1,0.5,0.6,0.8,1.4,0.9c0.8,0.1,2,0.1,3.6-0.1l0,1.8l-14.2,3.2l0-1.8c0.5-0.1,1-0.3,1.7-0.6c0.7-0.3,1.2-0.6,1.6-1
		c0.6-0.5,1.1-1.1,1.6-1.8c0.5-0.7,0.9-1.5,1.2-2.4c2.1-5.7,4.1-10.9,5.8-15.7c1.8-4.8,3.8-10.4,6.2-16.7l4.7-1
		c2.8,6.9,5.1,12.5,7,17c1.8,4.5,3.4,8.2,4.7,11.2c0.2,0.5,0.4,0.9,0.8,1.2c0.3,0.3,0.8,0.6,1.4,0.9c0.4,0.2,0.9,0.3,1.5,0.3
		c0.6,0,1.1,0,1.6-0.1l0,1.8L195,789.6z M195.8,775.2l-4.8-11.9l-5,14.1L195.8,775.2z"/>
	<path class="st0" d="M253.6,741.1l0,1.8c-0.4,0.1-1.1,0.4-1.9,0.7c-0.8,0.3-1.6,0.8-2.3,1.5c-0.6,0.6-1,1.5-1.3,2.6
		c-0.3,1.2-0.4,2.8-0.4,4.9l-0.2,25.5l-4,0.9l-20.6-23.9l-0.1,17.8c0,0.9,0,1.8,0.1,2.6c0.1,0.8,0.1,1.4,0.2,1.9
		c0.1,0.7,0.3,1.1,0.5,1.5c0.2,0.3,0.5,0.6,0.7,0.8c0.4,0.3,1.2,0.5,2.1,0.5c1,0.1,1.7,0.1,2.2,0.1l0,1.8l-14.6,3.2l0-1.8
		c0.4-0.2,1.1-0.4,2-0.8c0.9-0.4,1.6-0.8,2.2-1.4c0.6-0.6,1-1.5,1.3-2.6c0.3-1.1,0.4-2.8,0.4-4.9l0.2-16.8c0-0.4,0-0.7,0-1.1
		c0-0.3-0.1-0.6-0.1-0.9c-0.1-0.5-0.3-0.9-0.5-1.3c-0.2-0.4-0.5-0.8-0.9-1.1c-0.6-0.4-1.2-0.7-1.9-0.9c-0.7-0.1-1.5-0.2-2.4-0.2
		l0-1.8l12.5-2.8l18.1,21l0.1-14.6c0-1.1,0-1.9-0.1-2.6c0-0.7-0.1-1.3-0.2-1.8c-0.1-0.6-0.3-1.1-0.5-1.5c-0.2-0.4-0.5-0.6-0.8-0.8
		c-0.4-0.3-1.1-0.5-2.1-0.5c-0.9-0.1-1.7-0.1-2.2-0.1l0-1.8L253.6,741.1z"/>
	<path class="st0" d="M284.5,737.1c2,0.7,3.7,1.8,5.1,3.4c1.4,1.6,2.4,3.5,2.9,6c0.7,3,0.7,5.9,0.1,8.8c-0.6,2.8-1.8,5.4-3.6,7.7
		c-1.8,2.3-4,4.2-6.6,5.8s-5.7,2.8-9.1,3.5l-17.7,3.9l0-1.8c0.4-0.1,1-0.3,1.7-0.6c0.8-0.3,1.3-0.5,1.7-0.7c0.6-0.3,1-0.8,1.2-1.3
		c0.2-0.5,0.3-1,0.4-1.6l0.2-24.9c0-0.4,0-0.6,0-0.9c0-0.2,0-0.4-0.1-0.5c-0.1-0.7-0.6-1.1-1.4-1.3c-0.8-0.2-1.9-0.3-3.5-0.2l0-1.8
		l17.3-3.8c1.8-0.4,3.7-0.6,5.6-0.6C280.8,736.2,282.7,736.5,284.5,737.1z M282.5,761.5c0.7-2.2,1.1-4.5,1.1-6.8
		c0-2.4-0.2-4.8-0.8-7.3c-0.7-3.1-1.9-5.4-3.7-6.9c-1.8-1.5-4.1-2-6.9-1.3c-0.6,0.1-1.1,0.3-1.7,0.4c-0.5,0.1-1,0.3-1.3,0.3
		l-0.2,26.7c0,0.3,0,0.6,0,0.9c0,0.4,0.1,0.6,0.1,0.7c0.2,1,0.7,1.6,1.6,1.8c0.8,0.2,1.9,0.2,3.2-0.1c2.2-0.5,4-1.5,5.4-3
		C280.8,765.4,281.8,763.6,282.5,761.5z"/>
	<path class="st0" d="M345,734.4c0.6,2.9,0.7,5.7,0.2,8.6c-0.5,2.9-1.5,5.6-3,8c-1.5,2.5-3.5,4.6-6,6.4s-5.3,3-8.7,3.8
		c-4.5,1-8.4,0.5-11.8-1.4c-3.4-1.9-5.6-5-6.5-9.1c-0.7-3-0.7-6-0.2-8.9c0.6-2.9,1.7-5.6,3.3-8c1.6-2.4,3.6-4.5,6-6.2
		c2.4-1.7,5.2-2.9,8.2-3.6c4.5-1,8.5-0.6,11.9,1.3C341.9,727.1,344.1,730.2,345,734.4z M335.3,749.7c0.6-2.4,0.9-5,0.8-7.7
		c0-2.7-0.4-5.3-0.9-7.8c-0.6-2.9-1.7-5.1-3.2-6.5c-1.5-1.4-3.3-1.9-5.5-1.4c-1.9,0.4-3.5,1.5-4.8,3.1c-1.2,1.6-2.2,3.6-2.7,5.9
		c-0.6,2.3-0.9,4.8-0.8,7.6c0,2.7,0.3,5.4,0.9,8c0.6,2.8,1.7,5,3.2,6.4c1.5,1.5,3.4,1.9,5.6,1.5c1.9-0.4,3.5-1.5,4.8-3.2
		S334.8,752,335.3,749.7z"/>
	<path class="st0" d="M378.2,713.5l-0.1,9.5l-1.8,0.4c-0.5-1.4-1.3-2.8-2.5-4.1c-1.2-1.3-2.2-1.8-3.2-1.8c-0.5,0-1.1,0.1-1.9,0.2
		c-0.8,0.1-1.5,0.3-2.2,0.4l-5.3,1.2l-0.1,14.1l3.4-0.7c0.9-0.2,1.7-0.5,2.4-0.9c0.7-0.4,1.4-1,2-1.7c0.4-0.5,0.8-1.3,1.2-2.3
		c0.4-1.1,0.6-1.9,0.7-2.7l1.8-0.4l-0.1,15l-1.8,0.4l-0.2-0.7c-0.2-0.8-0.4-1.6-0.8-2.3c-0.3-0.7-0.6-1.2-0.9-1.4
		c-0.5-0.5-1.1-0.8-1.8-0.9c-0.7-0.1-1.5-0.1-2.5,0.2l-3.4,0.7l-0.1,11.5c0,0.3,0,0.6,0,0.8c0,0.2,0,0.4,0.1,0.6
		c0.2,0.7,0.6,1.2,1.2,1.4c0.7,0.2,1.8,0.2,3.5,0l0,1.8l-18.3,4.1l0-1.8c0.4-0.1,1-0.3,1.7-0.6c0.8-0.3,1.3-0.5,1.7-0.7
		c0.6-0.3,1-0.8,1.2-1.2c0.2-0.5,0.4-1,0.4-1.6l0.2-24.9c0-0.4,0-0.6,0-0.9c0-0.2,0-0.4-0.1-0.5c-0.1-0.7-0.6-1.1-1.4-1.3
		c-0.8-0.2-1.9-0.3-3.5-0.2l0-1.8L378.2,713.5z"/>
	<path class="st0" d="M411.5,741.6l0-1.8c1.6-0.5,2.8-1,3.7-1.5c0.9-0.5,1.2-0.9,1.2-1.2c-0.1-0.3-0.1-0.5-0.2-0.7
		c-0.1-0.2-0.2-0.4-0.3-0.7l-2.7-6.4l-11.7,2.6c-0.3,0.7-0.6,1.6-0.9,2.6c-0.4,1.1-0.7,2-0.9,2.8c-0.4,1.2-0.6,2-0.6,2.5
		c0,0.4,0,0.7,0,0.8c0.1,0.5,0.6,0.8,1.4,0.9s2,0.1,3.6-0.1l0,1.8l-14.2,3.2l0-1.8c0.5-0.1,1-0.3,1.7-0.6c0.7-0.3,1.2-0.6,1.6-1
		c0.6-0.5,1.1-1.1,1.6-1.8c0.5-0.7,0.9-1.5,1.2-2.4c2.1-5.7,4.1-10.9,5.8-15.7c1.8-4.8,3.8-10.4,6.2-16.7l4.7-1
		c2.8,6.9,5.1,12.5,7,17c1.8,4.5,3.4,8.2,4.7,11.2c0.2,0.5,0.4,0.9,0.8,1.2c0.3,0.3,0.8,0.6,1.4,0.9c0.4,0.2,0.9,0.3,1.5,0.3
		c0.6,0,1.1,0,1.6-0.1l0,1.8L411.5,741.6z M412.2,727.2l-4.8-11.9l-5,14.1L412.2,727.2z"/>
	<path class="st0" d="M462.1,696.7c-0.5,0.2-1,0.4-1.4,0.7c-0.5,0.3-1,0.6-1.5,1c-0.7,0.5-1.2,1.1-1.6,1.7c-0.4,0.6-0.8,1.3-1.1,2.3
		c-0.6,1.4-1.2,3.2-2,5.3c-0.8,2.1-1.9,5-3.2,8.5c-1.4,3.7-2.6,7-3.7,9.9c-1.1,2.9-2.1,5.8-3.2,8.7l-4.8,1.1
		c-2.8-6.8-5.2-12.4-7.1-17c-1.9-4.6-3.4-8-4.4-10.3c-0.4-0.8-0.8-1.4-1.1-1.7c-0.4-0.3-0.9-0.6-1.5-0.9c-0.5-0.2-1-0.3-1.4-0.4
		c-0.4,0-1,0-1.6,0l0-1.8l18-4l0,1.8c-1.3,0.4-2.2,0.8-2.8,1.1c-0.6,0.3-1,0.6-1.3,0.8c-0.3,0.2-0.4,0.4-0.4,0.6
		c0,0.2,0,0.4,0.1,0.5c0.1,0.4,0.2,0.7,0.3,1c0.1,0.4,0.3,0.8,0.6,1.5c0.7,1.8,1.7,4.2,3,7.3c1.3,3.1,3,7,4.9,11.8
		c1.4-3.8,2.6-7.3,3.8-10.5c1.1-3.3,2.2-6.4,3.3-9.3c0.4-1.3,0.8-2.4,1.1-3.5c0.3-1.1,0.4-1.8,0.3-2.1c-0.1-0.5-0.6-0.8-1.5-0.9
		c-0.9-0.1-2.1-0.1-3.7,0.2l0-1.8l14.1-3.1L462.1,696.7z"/>
	<path class="st0" d="M463.3,730.1l0-1.8c0.5-0.1,1.1-0.3,1.9-0.6c0.8-0.3,1.4-0.5,1.8-0.8c0.6-0.3,1-0.8,1.2-1.3
		c0.2-0.5,0.4-1,0.4-1.6l0.2-24.9c0-0.4,0-0.6,0-0.9c0-0.2,0-0.4-0.1-0.5c-0.1-0.7-0.6-1.1-1.5-1.3c-0.8-0.2-2-0.3-3.6-0.1l0-1.8
		l18.8-4.2l0,1.8c-0.5,0.1-1.1,0.4-1.9,0.7c-0.8,0.3-1.3,0.5-1.7,0.8c-0.6,0.4-1,0.8-1.2,1.3c-0.2,0.5-0.3,1-0.3,1.6l-0.2,24.9
		c0,0.3,0,0.6,0,0.8c0,0.2,0,0.4,0.1,0.6c0.2,0.8,0.7,1.3,1.5,1.4c0.8,0.1,2,0.1,3.6-0.1l0,1.8L463.3,730.1z"/>
	<path class="st0" d="M505.2,720.8l0-1.8c1.6-0.5,2.8-1,3.7-1.5c0.9-0.5,1.2-0.9,1.2-1.2c-0.1-0.3-0.1-0.5-0.2-0.7
		c-0.1-0.2-0.2-0.4-0.3-0.7l-2.7-6.4l-11.7,2.6c-0.3,0.7-0.6,1.6-0.9,2.6c-0.4,1.1-0.7,2-0.9,2.8c-0.4,1.2-0.6,2-0.6,2.5
		c0,0.4,0,0.7,0,0.8c0.1,0.5,0.6,0.8,1.4,0.9c0.8,0.1,2,0.1,3.6-0.1l0,1.8l-14.2,3.2l0-1.8c0.5-0.1,1-0.3,1.7-0.6
		c0.7-0.3,1.2-0.6,1.6-1c0.6-0.5,1.1-1.1,1.6-1.8c0.5-0.7,0.9-1.5,1.2-2.4c2.1-5.7,4.1-10.9,5.9-15.7c1.8-4.8,3.8-10.4,6.2-16.7
		l4.7-1c2.8,6.9,5.1,12.5,7,17c1.8,4.5,3.4,8.2,4.7,11.2c0.2,0.5,0.4,0.9,0.8,1.2c0.3,0.3,0.8,0.6,1.4,0.9c0.4,0.2,0.9,0.3,1.5,0.3
		c0.6,0,1.1,0,1.6-0.1l0,1.8L505.2,720.8z M506,706.4l-4.8-11.9l-5,14.1L506,706.4z"/>
	<path class="st0" d="M553.7,674.6l-0.1,10.2l-1.8,0.4c-0.2-0.5-0.5-1.2-0.8-1.9c-0.4-0.8-0.8-1.5-1.3-2.2c-0.5-0.8-1-1.4-1.5-1.8
		c-0.5-0.5-1-0.7-1.6-0.6c-0.5,0-1.1,0.1-1.9,0.2c-0.7,0.1-1.4,0.2-1.9,0.4l-1.2,0.3l-0.3,27.7c0,0.3,0,0.6,0,0.8
		c0,0.3,0,0.4,0.1,0.6c0.1,0.4,0.2,0.7,0.5,1c0.2,0.3,0.5,0.4,1,0.5c0.4,0.1,1,0.1,1.8,0.1c0.8,0,1.4,0,1.9-0.1l0,1.8l-18.9,4.2
		l0-1.8c0.4-0.1,1.1-0.3,1.9-0.6s1.4-0.5,1.8-0.7c0.6-0.4,1-0.8,1.2-1.3c0.2-0.5,0.3-1.1,0.3-1.7l0.3-28.4l-0.9,0.2
		c-0.6,0.1-1.2,0.3-1.8,0.5c-0.6,0.2-1.3,0.4-2,0.6c-0.6,0.2-1.1,0.7-1.7,1.4c-0.6,0.8-1.1,1.6-1.6,2.4c-0.6,1.1-1.1,2-1.4,2.9
		c-0.4,0.8-0.6,1.6-0.9,2.3l-1.8,0.4l0.1-10.2L553.7,674.6z"/>
	<path class="st0" d="M555.5,709.7l0-1.8c0.5-0.1,1.1-0.3,1.8-0.6c0.8-0.3,1.4-0.5,1.8-0.8c0.6-0.3,1-0.8,1.2-1.3
		c0.2-0.5,0.4-1,0.4-1.6l0.2-24.9c0-0.4,0-0.6,0-0.9c0-0.2,0-0.4-0.1-0.5c-0.1-0.7-0.6-1.1-1.5-1.3c-0.8-0.2-2-0.3-3.6-0.1l0-1.8
		l18.8-4.2l0,1.8c-0.5,0.1-1.1,0.4-1.9,0.7c-0.8,0.3-1.3,0.6-1.7,0.8c-0.6,0.4-1,0.8-1.2,1.3c-0.2,0.5-0.3,1-0.3,1.6l-0.2,24.9
		c0,0.3,0,0.6,0,0.8c0,0.2,0,0.4,0.1,0.6c0.2,0.8,0.7,1.3,1.5,1.4c0.8,0.1,2,0.1,3.6-0.1l0,1.8L555.5,709.7z"/>
	<path class="st0" d="M612.5,675.2c0.6,2.9,0.7,5.7,0.2,8.6c-0.5,2.9-1.5,5.6-3,8c-1.5,2.5-3.5,4.6-6,6.4c-2.4,1.8-5.3,3-8.7,3.8
		c-4.5,1-8.4,0.5-11.8-1.4c-3.4-1.9-5.6-5-6.5-9.1c-0.7-3-0.7-6-0.2-8.9c0.6-2.9,1.7-5.6,3.3-8c1.6-2.4,3.6-4.5,6-6.2
		c2.4-1.7,5.2-2.9,8.2-3.6c4.5-1,8.5-0.6,11.9,1.3C609.4,667.8,611.6,670.9,612.5,675.2z M602.8,690.4c0.6-2.4,0.9-5,0.8-7.7
		c0-2.7-0.4-5.3-0.9-7.8c-0.6-2.9-1.7-5.1-3.2-6.5c-1.5-1.4-3.3-1.9-5.5-1.4c-1.9,0.4-3.5,1.5-4.8,3.1c-1.2,1.6-2.2,3.6-2.8,5.9
		c-0.6,2.3-0.9,4.8-0.8,7.6c0,2.7,0.3,5.4,0.9,8c0.6,2.8,1.7,5,3.2,6.4c1.5,1.5,3.3,1.9,5.6,1.5c1.9-0.4,3.5-1.5,4.8-3.2
		C601.3,694.7,602.3,692.7,602.8,690.4z"/>
	<path class="st0" d="M653.9,652.4l0,1.8c-0.4,0.1-1.1,0.4-1.9,0.7c-0.8,0.3-1.6,0.8-2.3,1.5c-0.6,0.6-1,1.5-1.3,2.6
		c-0.3,1.2-0.4,2.8-0.4,4.9l-0.2,25.5l-4,0.9l-20.6-23.9l-0.1,17.8c0,0.9,0,1.8,0.1,2.6c0.1,0.8,0.1,1.4,0.2,1.9
		c0.1,0.7,0.3,1.1,0.5,1.5c0.2,0.3,0.5,0.6,0.7,0.8c0.4,0.3,1.2,0.5,2.1,0.5c1,0.1,1.7,0.1,2.2,0.1l0,1.8l-14.6,3.2l0-1.8
		c0.4-0.2,1.1-0.4,2-0.8c0.9-0.4,1.6-0.8,2.2-1.4c0.6-0.6,1-1.5,1.3-2.6c0.3-1.1,0.4-2.8,0.4-4.9l0.2-16.8c0-0.4,0-0.7,0-1.1
		c0-0.3-0.1-0.6-0.1-0.9c-0.1-0.5-0.3-0.9-0.5-1.3c-0.2-0.4-0.5-0.8-0.9-1.1c-0.6-0.4-1.2-0.7-1.9-0.9c-0.7-0.1-1.5-0.2-2.4-0.2
		l0-1.8l12.5-2.8l18.1,21l0.1-14.6c0-1.1,0-1.9-0.1-2.6c0-0.7-0.1-1.3-0.2-1.8c-0.1-0.6-0.3-1.1-0.5-1.5c-0.2-0.4-0.5-0.6-0.8-0.8
		c-0.4-0.3-1.1-0.5-2.1-0.5c-0.9-0.1-1.7-0.1-2.2-0.1l0-1.8L653.9,652.4z"/>
</g>
<rect class="st1" width="900" height="900"/>
</svg>
